<svg xmlns="http://www.w3.org/2000/svg" viewBox="0 0 256 256" fill="currentColor" role="img" aria-labelledby="participant-fill-mic-muted-title"><title id="participant-fill-mic-muted-title">User participant muted</title><defs><clipPath id="participant-fill-mic-muted-clearance"><path d="M0 0H256V256H0Z M25.6961066667 59.6372266667L196.362773333 230.303893333L230.303893333 196.362773333L59.6372266667 25.6961066667Z" clip-rule="nonzero" /></clipPath><clipPath id="participant-fill-mic-muted-shoulder-tip"><path d="M0 0H256V170.666666667L170.666666667 256H0Z" /></clipPath></defs><g clip-path="url(#participant-fill-mic-muted-clearance)"><g clip-path="url(#participant-fill-mic-muted-shoulder-tip)"><path d="M230.93,220a8,8,0,0,1-6.93,4H32a8,8,0,0,1-6.92-12c15.23-26.33,38.7-45.21,66.09-54.16a72,72,0,1,1,73.66,0c27.39,8.95,50.86,27.83,66.09,54.16A8,8,0,0,1,230.93,220Z" /></g></g><path d="M42.6666666667 42.6666666667L213.333333333 213.333333333" fill="none" stroke="currentColor" stroke-width="21.3333333333" stroke-linecap="butt" /></svg>
